<svg xmlns="http://www.w3.org/2000/svg" width="16" height="16" viewBox="0 0 16 16">
  <g id="Group_10" data-name="Group 10" transform="translate(-75.206 -589.796)">
    <path id="Path_62" data-name="Path 62" d="M83.206,591.238c2.136,0,2.389.008,3.232.046a4.427,4.427,0,0,1,1.486.276,2.644,2.644,0,0,1,1.518,1.518,4.407,4.407,0,0,1,.275,1.486c.039.843.047,1.1.047,3.232s-.008,2.389-.047,3.233a4.394,4.394,0,0,1-.275,1.485,2.649,2.649,0,0,1-1.518,1.519,4.433,4.433,0,0,1-1.486.275c-.843.039-1.1.047-3.232.047s-2.39-.008-3.233-.047a4.433,4.433,0,0,1-1.486-.275,2.657,2.657,0,0,1-1.518-1.519,4.419,4.419,0,0,1-.275-1.485c-.039-.844-.047-1.1-.047-3.233s.008-2.389.047-3.232a4.433,4.433,0,0,1,.275-1.486,2.652,2.652,0,0,1,1.518-1.518,4.427,4.427,0,0,1,1.486-.276c.843-.038,1.1-.046,3.233-.046m0-1.442c-2.173,0-2.446.01-3.3.048a5.9,5.9,0,0,0-1.942.372,4.088,4.088,0,0,0-2.339,2.34,5.867,5.867,0,0,0-.372,1.942c-.039.853-.048,1.126-.048,3.3s.009,2.445.048,3.3a5.873,5.873,0,0,0,.372,1.942,4.083,4.083,0,0,0,2.339,2.339,5.873,5.873,0,0,0,1.942.372c.853.039,1.126.048,3.3.048s2.445-.009,3.3-.048a5.873,5.873,0,0,0,1.942-.372,4.088,4.088,0,0,0,2.34-2.339,5.876,5.876,0,0,0,.371-1.942c.039-.854.049-1.126.049-3.3s-.01-2.445-.049-3.3a5.87,5.87,0,0,0-.371-1.942,4.093,4.093,0,0,0-2.34-2.34,5.9,5.9,0,0,0-1.942-.372c-.853-.038-1.126-.048-3.3-.048Z" fill="#606060"/>
    <path id="Path_63" data-name="Path 63" d="M83.206,593.688a4.108,4.108,0,1,0,4.108,4.108A4.109,4.109,0,0,0,83.206,593.688Zm0,6.775a2.667,2.667,0,1,1,2.666-2.667A2.667,2.667,0,0,1,83.206,600.463Z" fill="#606060"/>
    <circle id="Ellipse_1" data-name="Ellipse 1" cx="0.96" cy="0.96" r="0.96" transform="translate(86.516 592.566)" fill="#606060"/>
  </g>
</svg>
