<svg xmlns="http://www.w3.org/2000/svg" width="19.687" height="16" viewBox="0 0 19.687 16">
  <path id="Path_65" data-name="Path 65" d="M79.553,572.275a11.414,11.414,0,0,0,11.493-11.492q0-.263-.012-.522a8.225,8.225,0,0,0,2.015-2.091,8.051,8.051,0,0,1-2.319.635,4.057,4.057,0,0,0,1.776-2.234,8.087,8.087,0,0,1-2.565.98,4.041,4.041,0,0,0-6.988,2.763,4,4,0,0,0,.1.921,11.469,11.469,0,0,1-8.326-4.22,4.042,4.042,0,0,0,1.251,5.392,4,4,0,0,1-1.83-.505c0,.017,0,.034,0,.052a4.04,4.04,0,0,0,3.241,3.959,4.053,4.053,0,0,1-1.824.07,4.044,4.044,0,0,0,3.773,2.805,8.108,8.108,0,0,1-5.017,1.729,8.29,8.29,0,0,1-.963-.056,11.431,11.431,0,0,0,6.191,1.814" transform="translate(-73.362 -556.275)" fill="#606060"/>
</svg>
