<svg xmlns="http://www.w3.org/2000/svg" width="805.333" height="239.809" viewBox="0 0 805.333 239.809">
  <g id="Group_61" data-name="Group 61" transform="translate(-276.518 -463.083)">
    <g id="Group_61-2" data-name="Group 61" transform="translate(276.518 463.083)">
      <path id="Path_292" data-name="Path 292" d="M278.02,504.4h30.258v1.027l-1.817.157c-8.3.553-14.537,3.159-18.8,7.9s-7.742,12.562-10.429,23.463l-.711-.316Zm57.753,108.992c0,7.979.711,13.589,2.054,16.828a9.613,9.613,0,0,0,6.636,6.084v.631h-34.13V636.3c2.923-.711,5.057-2.765,6.478-6.084s2.133-9.006,2.133-16.985V504.4H335.93V613.231Zm42.426-76.6-.712.316c-2.685-10.9-6.162-18.724-10.507-23.465s-10.586-7.348-18.724-7.9l-1.817-.159v-1.027H376.7Z" transform="translate(-276.518 -441.259)" fill="#fff"/>
      <path id="Path_293" data-name="Path 293" d="M365.179,601.775c0,6.48.709,11.063,2.132,13.67s4.03,4.345,7.742,5.214v.472H341.4v-.472q4.86-1.424,6.637-5.214c1.184-2.529,1.739-7.112,1.739-13.826V561.8q0-10.664-1.9-15.169a10.758,10.758,0,0,0-6.162-6.162l.159-.474c9.4-.553,17.538-2.45,24.492-5.688l.315.316c-.948,5.846-1.421,14.931-1.5,27.177v39.976Zm26.781-67.39a14.821,14.821,0,0,1,8.534,2.448l-3.24,13.114h-.474c-2.369-1.974-5.688-2.922-10.033-2.922a13.758,13.758,0,0,0-12.327,6.952l-.157-.315q1.068-8.771,5.927-13.983a15.578,15.578,0,0,1,11.85-5.216Z" transform="translate(-242.246 -425.459)" fill="#fff"/>
      <path id="Path_294" data-name="Path 294" d="M414.752,624.818a16.52,16.52,0,0,0,10.349-3.24l.316.157a16.467,16.467,0,0,1-6.558,8.771,20.589,20.589,0,0,1-12.246,3.555A22.3,22.3,0,0,1,390.5,627.9c-4.265-4.109-6.4-9.481-6.4-16.039,0-5.768,1.264-9.953,3.871-12.561l36.58-11.139v1.1l-22.832,7.9a20.07,20.07,0,0,0-2.291,9.72q0,8.768,4.5,13.271a14.9,14.9,0,0,0,10.981,4.5Zm-20.067-45.9L389,555.925c6.163-5.294,13.747-8.453,22.834-9.48v.868c-4.5,1.66-8.3,5.214-11.3,10.666s-4.739,12.4-5.135,20.858Zm37.922-44.243a32.327,32.327,0,0,1-16.987-4.661,25.217,25.217,0,0,1-10.349-12.089l10.035-5.847h.474c3.319,11.615,9.006,18.963,16.986,22.042l-.159.475Zm16.117,73.475q0,10.19,1.9,14.219a10.823,10.823,0,0,0,6.241,5.69v.475c-7.033.315-14.775,2.132-23.307,5.45l-.318-.315V580.259c0-18.962-4.027-29.865-12.165-32.787V546.6c8.849.949,15.723,4.426,20.541,10.351s7.268,14.063,7.268,24.412v26.7Z" transform="translate(-219.689 -437.202)" fill="#fff"/>
      <path id="Path_295" data-name="Path 295" d="M467.508,601.775c0,6.48.633,11.063,1.9,13.67a9.821,9.821,0,0,0,6.636,5.214v.472H443.806v-.472q4.858-1.424,6.637-5.214c1.184-2.529,1.738-7.112,1.738-13.826V561.8q0-10.664-1.9-15.169a10.759,10.759,0,0,0-6.162-6.162l.159-.474q14.339-.83,24.411-5.688l.316.316c-.948,5.846-1.421,14.931-1.5,27.177v39.976Zm56.726.159c0,6.795.553,11.376,1.66,13.826s3.24,4.187,6.4,5.214v.474H500.058v-.474a9.736,9.736,0,0,0,6.558-5.294q1.9-4.028,1.9-13.747V566.856c0-7.744-1.58-13.589-4.818-17.46s-7.9-5.846-13.985-5.846q-8.058,0-12.8,4.978l-.316-.159a21.249,21.249,0,0,1,8.06-9.718,23.663,23.663,0,0,1,13.9-4.108c7.979,0,14.3,2.45,18.883,7.427s6.872,11.693,6.872,20.145v39.66Z" transform="translate(-188.148 -425.459)" fill="#fff"/>
      <path id="Path_296" data-name="Path 296" d="M512.252,648.614a8.953,8.953,0,0,1,3.949-7.348,17.465,17.465,0,0,1,9.718-3.318l.157.474a14.964,14.964,0,0,0-2.369,8.928,16.4,16.4,0,0,0,6.162,13.271c4.108,3.4,10.192,5.373,18.33,6.006v.87q-18.371-.594-27.021-6.163c-5.768-3.712-8.69-7.979-8.69-12.72Zm4.582-74.819a29.977,29.977,0,0,1,8.534-21.727c5.687-5.846,13.271-9.243,22.673-10.27v.87q-15.049,4.147-14.537,31.048.119,25.482,14.459,29.628v.79q-13.867-1.3-22.517-9.718a27.843,27.843,0,0,1-8.612-20.778Zm.237,41.478a48.91,48.91,0,0,0,12.562-8.058l.553.315c-1.739,2.372-2.607,4.505-2.607,6.48,0,3.24,2.528,4.82,7.585,4.82h33.183c9.163,0,16.038,2.054,20.7,6.082a19.892,19.892,0,0,1,6.952,15.8c0,7.19-3.24,13.352-9.8,18.489s-15.878,7.9-27.967,8.373v-.868c8.928-.553,15.88-2.687,20.858-6.321s7.426-8.058,7.426-13.195c0-10.033-7.346-15.09-22.12-15.168H534.925c-11.93,0-17.934-5.609-17.934-16.829Zm41-11.85c9.243-2.766,14.063-12.8,14.378-30.1q.119-26.429-14.457-30.574v-.871c9.244.871,16.75,4.189,22.438,9.957a29.425,29.425,0,0,1,8.532,21.489q0,12.682-8.532,21.095c-5.688,5.609-13.115,8.849-22.358,9.8Zm21.172-78.373,12.483-4.03a14.216,14.216,0,0,1,3.24,9.085,10.654,10.654,0,0,1-4.108,8.612q-4.149,3.436-11.139,4.267l-.475-.475a12.413,12.413,0,0,0,2.607-8.3,14.267,14.267,0,0,0-2.765-8.691Z" transform="translate(-151.991 -432.478)" fill="#fff"/>
      <path id="Path_297" data-name="Path 297" d="M594.1,612.692q-3.911,11.613-1.421,16.828c1.658,3.477,5.292,5.688,10.9,6.717v.631H573.162v-.631q4.977-1.3,9.008-6.4c2.685-3.4,5.529-8.612,8.453-15.723l34.343-82.9.316,1.343-31.1,79.978Zm88.013-2.291q5.69,14.811,9.008,19.672c2.211,3.24,4.739,5.214,7.663,6v.631H660.463v-.631c3.871-1.029,6.241-3.16,7.111-6.319s.079-8.456-2.37-15.961l-6.636-17.618-46.94-1.54.394-1.027,45.754-.04-27.914-77.059,4.9-11.693h8.058l39.212,105.422Z" transform="translate(-119.815 -441.035)" fill="#fff"/>
      <path id="Path_298" data-name="Path 298" d="M686.763,601.775c0,6.48.633,11.063,1.9,13.67a9.824,9.824,0,0,0,6.637,5.214v.472H663.061v-.472q4.862-1.424,6.637-5.214c1.186-2.529,1.738-7.112,1.738-13.826V561.8q0-10.664-1.9-15.169a10.756,10.756,0,0,0-6.163-6.162l.159-.474q14.339-.83,24.412-5.688l.316.316c-.948,5.846-1.423,14.931-1.5,27.177v39.976Zm56.727.159c0,6.795.553,11.376,1.658,13.826s3.24,4.187,6.4,5.214v.474H719.314v-.474a9.733,9.733,0,0,0,6.556-5.294q1.9-4.028,1.9-13.747V566.856c0-7.744-1.58-13.589-4.819-17.46s-7.9-5.846-13.983-5.846q-8.06,0-12.8,4.978l-.316-.159a21.235,21.235,0,0,1,8.058-9.718,23.668,23.668,0,0,1,13.906-4.108c7.979,0,14.3,2.45,18.882,7.427s6.872,11.693,6.872,20.145v39.66Z" transform="translate(-72.326 -425.459)" fill="#fff"/>
      <path id="Path_299" data-name="Path 299" d="M638.913,547.208" transform="translate(-85.082 -418.644)" fill="#fff" stroke="#262626" stroke-linecap="round" stroke-linejoin="round" stroke-width="7"/>
      <path id="Path_300" data-name="Path 300" d="M754.466,505.137a63.132,63.132,0,0,1-10.53-4.476c-.275-3.9-.412-7.84-.412-11.8q0-5.708.382-11.324a90.74,90.74,0,0,1-23.734-3.439q4.447.39,8.986.4a104.453,104.453,0,0,0,15.084-1.1c2.583-.382,5.12-.854,7.626-1.42v.061c0,1.756.015,3.53.061,5.272A213.736,213.736,0,0,0,754.466,505.137Z" transform="translate(-42.157 -458.386)" fill="#fff"/>
      <path id="Path_301" data-name="Path 301" d="M725.764,472.665a12.3,12.3,0,0,0-19.562,0,9.783,9.783,0,0,1,19.562,0Z" transform="translate(-49.537 -463.083)" fill="#fff"/>
      <path id="Path_302" data-name="Path 302" d="M802.586,501.394A83.016,83.016,0,0,1,748.669,538.3a60.3,60.3,0,0,1-3.347-10.025,79.812,79.812,0,0,0,33.942-13.326,65.1,65.1,0,0,1-33.27-15.986,62.266,62.266,0,0,0,44.594,6.51A60.644,60.644,0,0,0,802.586,501.394Z" transform="translate(-28.872 -444.129)" fill="#fff"/>
      <path id="Path_303" data-name="Path 303" d="M836.952,551.527a90.46,90.46,0,0,1-14.916,17.009,89.46,89.46,0,0,1-58.211,22.649v11.859c0,6.48.626,11.065,1.9,13.663a9.819,9.819,0,0,0,6.633,5.227v.474H740.122v-.474q4.86-1.421,6.633-5.227c1.192-2.522,1.742-7.106,1.742-13.815V578.47a86.114,86.114,0,0,0,13.54,1.055c.6,0,1.192,0,1.788-.031a86.513,86.513,0,0,0,41.385-11.4A63.59,63.59,0,0,1,757.544,531.9a62.055,62.055,0,0,0,79.408,19.623Z" transform="translate(-31.619 -426.728)" fill="#fff"/>
      <path id="Path_304" data-name="Path 304" d="M682.6,505.137a63.127,63.127,0,0,0,10.53-4.476c.275-3.9.413-7.84.413-11.8q0-5.708-.382-11.324A90.741,90.741,0,0,0,716.89,474.1q-4.447.39-8.986.4a104.455,104.455,0,0,1-15.084-1.1q-3.874-.573-7.626-1.42v.061c0,1.756-.015,3.53-.061,5.272A213.736,213.736,0,0,1,682.6,505.137Z" transform="translate(-62.007 -458.386)" fill="#fff"/>
      <path id="Path_305" data-name="Path 305" d="M642.416,501.394a82.132,82.132,0,0,0,11.569,14.381c.413.015.841.015,1.253.015a65.038,65.038,0,0,0,43.769-16.826,62.228,62.228,0,0,1-56.591,2.43Z" transform="translate(-83.232 -444.129)" fill="#fff"/>
      <path id="Path_306" data-name="Path 306" d="M802.353,501.394a82.138,82.138,0,0,1-11.569,14.381c-.412.015-.841.015-1.253.015a65.038,65.038,0,0,1-43.769-16.826,62.228,62.228,0,0,0,56.591,2.43Z" transform="translate(-28.639 -444.129)" fill="#fff"/>
    </g>
    <path id="Path_307" data-name="Path 307" d="M357,613l4.578,10.7H575.245Z" transform="translate(42.517 79.195)" fill="#fff"/>
    <path id="Path_308" data-name="Path 308" d="M791.33,613l-4.578,10.7H573.089Z" transform="translate(156.664 79.195)" fill="#fff"/>
  </g>
</svg>
