<svg xmlns="http://www.w3.org/2000/svg" width="232" height="232" viewBox="0 0 232 232">
  <g id="Group_43" data-name="Group 43" transform="translate(-3950 -810)">
    <circle id="Ellipse_8" data-name="Ellipse 8" cx="114" cy="114" r="114" transform="translate(3952 812)" stroke-width="4" stroke="#333" stroke-linecap="round" stroke-linejoin="round" fill="none"/>
    <g id="Group_43-2" data-name="Group 43">
      <path id="Path_152" data-name="Path 152" d="M4087.375,983" fill="none" stroke="#333" stroke-linecap="round" stroke-linejoin="round" stroke-width="4"/>
      <line id="Line_78" data-name="Line 78" x2="18.525" transform="translate(4037.5 985.85)" fill="none" stroke="#333" stroke-linecap="round" stroke-linejoin="round" stroke-width="4"/>
      <line id="Line_79" data-name="Line 79" x2="27.075" transform="translate(4064.575 985.85)" fill="none" stroke="#333" stroke-linecap="round" stroke-linejoin="round" stroke-width="4"/>
      <line id="Line_80" data-name="Line 80" x2="32.775" transform="translate(3996.175 985.85)" fill="none" stroke="#333" stroke-linecap="round" stroke-linejoin="round" stroke-width="4"/>
      <line id="Line_81" data-name="Line 81" x2="35.625" transform="translate(4100.2 985.85)" fill="none" stroke="#333" stroke-linecap="round" stroke-linejoin="round" stroke-width="4"/>
    </g>
    <g id="Group_44" data-name="Group 44">
      <line id="Line_82" data-name="Line 82" x2="68.824" transform="translate(4031.8 1002.95)" fill="none" stroke="#333" stroke-linecap="round" stroke-linejoin="round" stroke-width="4"/>
      <line id="Line_83" data-name="Line 83" x2="12.825" transform="translate(4010.425 1002.95)" fill="none" stroke="#333" stroke-linecap="round" stroke-linejoin="round" stroke-width="4"/>
      <line id="Line_84" data-name="Line 84" x2="12.825" transform="translate(4108.75 1002.95)" fill="none" stroke="#333" stroke-linecap="round" stroke-linejoin="round" stroke-width="4"/>
    </g>
    <g id="Group_45" data-name="Group 45">
      <line id="Line_85" data-name="Line 85" x2="7.125" transform="translate(4041.775 1020.05)" fill="none" stroke="#333" stroke-linecap="round" stroke-miterlimit="10" stroke-width="4"/>
      <line id="Line_86" data-name="Line 86" x2="18.525" transform="translate(4057.45 1020.05)" fill="none" stroke="#333" stroke-linecap="round" stroke-miterlimit="10" stroke-width="4"/>
      <line id="Line_87" data-name="Line 87" x2="5.7" transform="translate(4084.525 1020.05)" fill="none" stroke="#333" stroke-linecap="round" stroke-miterlimit="10" stroke-width="4"/>
    </g>
    <line id="Line_88" data-name="Line 88" x2="185.25" transform="translate(3973.8 968.75)" fill="none" stroke="#333" stroke-linecap="round" stroke-linejoin="round" stroke-width="4"/>
    <path id="Path_153" data-name="Path 153" d="M4142.95,906.05c0,11.4-42.75,2.85-42.75-11.4,17.1,0,22.8-22.8,22.8-28.5,0,8.55-22.8,8.55-28.5,8.55l-2.85-17.1s2.85-5.7,0-5.7,0,2.85-17.1,2.85" fill="none" stroke="#333" stroke-linecap="round" stroke-linejoin="round" stroke-width="4"/>
    <path id="Path_154" data-name="Path 154" d="M4074.55,854.75" fill="none" stroke="#333" stroke-linecap="round" stroke-linejoin="round" stroke-width="4"/>
    <path id="Path_155" data-name="Path 155" d="M4142.95,906.05c0,11.4-11.4,31.35-74.1,31.35" fill="none" stroke="#333" stroke-linecap="round" stroke-linejoin="round" stroke-width="4"/>
    <path id="Path_156" data-name="Path 156" d="M4028.95,934.55v34.2h-8.55V931.7" fill="none" stroke="#333" stroke-linecap="round" stroke-linejoin="round" stroke-width="4"/>
    <path id="Path_157" data-name="Path 157" d="M4051.75,937.4v31.35h-8.55V937.4" fill="none" stroke="#333" stroke-linecap="round" stroke-linejoin="round" stroke-width="4"/>
    <path id="Path_158" data-name="Path 158" d="M4108.75,934.55v34.2h8.55V931.7" fill="none" stroke="#333" stroke-linecap="round" stroke-linejoin="round" stroke-width="4"/>
    <path id="Path_159" data-name="Path 159" d="M4085.95,937.4v31.35h8.55V937.4" fill="none" stroke="#333" stroke-linecap="round" stroke-linejoin="round" stroke-width="4"/>
    <path id="Path_160" data-name="Path 160" d="M3994.75,906.05c0,11.4,42.75,2.85,42.75-11.4-17.1,0-22.8-22.8-22.8-28.5,0,8.55,22.8,8.55,28.5,8.55l2.85-17.1s-2.85-5.7,0-5.7,0,2.85,17.1,2.85c0,0,0-5.7,5.7-5.7s5.7,5.7,5.7,5.7" fill="none" stroke="#333" stroke-linecap="round" stroke-linejoin="round" stroke-width="4"/>
    <path id="Path_161" data-name="Path 161" d="M3994.75,906.05c0,11.4,11.4,31.35,74.1,31.35" fill="none" stroke="#333" stroke-linecap="round" stroke-linejoin="round" stroke-width="4"/>
    <path id="Path_162" data-name="Path 162" d="M3999.183,901.617c-4.433,0-4.433,4.433-4.433,4.433" fill="none" stroke="#333" stroke-linecap="round" stroke-linejoin="round" stroke-width="4"/>
    <path id="Path_163" data-name="Path 163" d="M4019.133,861.717c-4.433,0-4.433,4.433-4.433,4.433" fill="none" stroke="#333" stroke-linecap="round" stroke-linejoin="round" stroke-width="4"/>
    <line id="Line_89" data-name="Line 89" x2="17.1" transform="translate(4060.3 903.2)" fill="none" stroke="#333" stroke-linecap="round" stroke-linejoin="round" stroke-width="4"/>
    <path id="Path_164" data-name="Path 164" d="M4040.35,923.15s11.4,2.85,28.5,2.85,28.5-2.85,28.5-2.85" fill="none" stroke="#333" stroke-linecap="round" stroke-linejoin="round" stroke-width="4"/>
    <path id="Path_165" data-name="Path 165" d="M4123,866.15" fill="none" stroke="#333" stroke-linecap="round" stroke-linejoin="round" stroke-width="4"/>
    <path id="Path_166" data-name="Path 166" d="M4046.05,886.2a82.8,82.8,0,0,0,22.8,2.746,79.341,79.341,0,0,0,22.8-2.85" fill="none" stroke="#333" stroke-linecap="round" stroke-linejoin="round" stroke-width="4"/>
    <path id="Path_167" data-name="Path 167" d="M4014.7,866.15" fill="none" stroke="#333" stroke-linecap="round" stroke-linejoin="round" stroke-width="4"/>
    <path id="Path_168" data-name="Path 168" d="M4138.517,901.617c4.433,0,4.433,4.433,4.433,4.433" fill="none" stroke="#333" stroke-linecap="round" stroke-linejoin="round" stroke-width="4"/>
    <path id="Path_169" data-name="Path 169" d="M4118.567,861.717c4.433,0,4.433,4.433,4.433,4.433" fill="none" stroke="#333" stroke-linecap="round" stroke-linejoin="round" stroke-width="4"/>
  </g>
</svg>
