<svg xmlns="http://www.w3.org/2000/svg" width="231" height="231" viewBox="0 0 231 231">
  <g id="Group_35" data-name="Group 35" transform="translate(-3888 -494)">
    <circle id="Ellipse_6" data-name="Ellipse 6" cx="113.5" cy="113.5" r="113.5" transform="translate(3890 496)" stroke-width="4" stroke="#333" stroke-linecap="round" stroke-linejoin="round" fill="none"/>
    <g id="Group_34" data-name="Group 34">
      <rect id="Rectangle_44" data-name="Rectangle 44" width="76.342" height="76.342" transform="matrix(0.865, -0.501, 0.501, 0.865, 3955.001, 590.115)" stroke-width="4" stroke="#333" stroke-linecap="round" stroke-linejoin="round" fill="none"/>
      <rect id="Rectangle_45" data-name="Rectangle 45" width="45.805" height="45.805" transform="matrix(0.865, -0.501, 0.501, 0.865, 3975.866, 595.672)" stroke-width="4" stroke="#333" stroke-linecap="round" stroke-linejoin="round" fill="none"/>
      <path id="Path_129" data-name="Path 129" d="M4022.789,524.375" fill="none" stroke="#333" stroke-linecap="round" stroke-linejoin="round" stroke-width="4"/>
      <path id="Path_130" data-name="Path 130" d="M4015.149,528.8" fill="none" stroke="#333" stroke-linecap="round" stroke-linejoin="round" stroke-width="4"/>
      <path id="Path_131" data-name="Path 131" d="M4023.837,541.413l-8.151-7.041-2.216,10.106-14.435-6.342-1.679,15.677-9.869-3.105-2.216,10.106-14.435-6.342-1.678,15.677-9.87-3.105-2.216,10.106-14.435-6.342-2.4,19.21" fill="none" stroke="#333" stroke-linecap="round" stroke-linejoin="round" stroke-width="3.5"/>
      <path id="Path_132" data-name="Path 132" d="M4023.837,541.413l16.6-1.8-6.342,14.435,10.106,2.216-3.105,9.869,15.677,1.679-6.342,14.435,10.106,2.216-3.105,9.869,15.677,1.679-6.342,14.435,10.106,2.216-7.042,8.151" fill="none" stroke="#333" stroke-linecap="round" stroke-linejoin="round" stroke-width="3.5"/>
      <path id="Path_133" data-name="Path 133" d="M3999.179,679.217" fill="none" stroke="#333" stroke-linecap="round" stroke-linejoin="round" stroke-width="4"/>
      <path id="Path_134" data-name="Path 134" d="M4069.891,620.606l.523,14.4-13.159-4.14-2.216,10.106-9.869-3.105-1.679,15.677-14.435-6.342-2.216,10.106-9.869-3.105-1.679,15.677-14.435-6.342-2.216,10.106-12.555-4.49" fill="none" stroke="#333" stroke-linecap="round" stroke-linejoin="round" stroke-width="3.5"/>
      <path id="Path_135" data-name="Path 135" d="M4005.1,701.974l-64.935-112.087-11.01,6.378,61.24,105.709" fill="none" stroke="#333" stroke-linecap="round" stroke-linejoin="round" stroke-width="4"/>
    </g>
    <line id="Line_45" data-name="Line 45" x2="11.35" transform="translate(4040.387 680.438)" fill="none" stroke="#333" stroke-linecap="round" stroke-linejoin="round" stroke-width="4"/>
    <line id="Line_46" data-name="Line 46" y2="11.35" transform="translate(4046.063 674.763)" fill="none" stroke="#333" stroke-linecap="round" stroke-linejoin="round" stroke-width="4"/>
    <line id="Line_47" data-name="Line 47" y1="8.026" x2="8.026" transform="translate(3958.1 532.888)" fill="none" stroke="#333" stroke-linecap="round" stroke-linejoin="round" stroke-width="4"/>
    <line id="Line_48" data-name="Line 48" x2="8.026" y2="8.026" transform="translate(3958.1 532.888)" fill="none" stroke="#333" stroke-linecap="round" stroke-linejoin="round" stroke-width="4"/>
    <line id="Line_49" data-name="Line 49" transform="translate(4071.6 555.588)" fill="none" stroke="#333" stroke-linecap="round" stroke-linejoin="round" stroke-width="5"/>
    <line id="Line_50" data-name="Line 50" transform="translate(3955.262 677.6)" fill="none" stroke="#333" stroke-linecap="round" stroke-linejoin="round" stroke-width="5"/>
    <line id="Line_51" data-name="Line 51" transform="translate(4074.438 657.737)" fill="none" stroke="#333" stroke-linecap="round" stroke-linejoin="round" stroke-width="5"/>
    <path id="Path_136" data-name="Path 136" d="M3933.358,665.089V659.07h-6.019" fill="none" stroke="#333" stroke-linecap="round" stroke-linejoin="round" stroke-width="4"/>
    <line id="Line_52" data-name="Line 52" x2="5.675" y2="8.512" transform="translate(3926.887 626.525)" fill="none" stroke="#333" stroke-linecap="round" stroke-linejoin="round" stroke-width="4"/>
    <line id="Line_53" data-name="Line 53" x2="5.675" y2="8.512" transform="translate(4080.113 572.612)" fill="none" stroke="#333" stroke-linecap="round" stroke-linejoin="round" stroke-width="4"/>
    <line id="Line_54" data-name="Line 54" x2="5.675" transform="translate(3992.15 521.537)" fill="none" stroke="#333" stroke-linecap="round" stroke-linejoin="round" stroke-width="4"/>
    <line id="Line_55" data-name="Line 55" transform="translate(3921.212 569.775)" fill="none" stroke="#333" stroke-linecap="round" stroke-linejoin="round" stroke-width="5"/>
    <path id="Path_137" data-name="Path 137" d="M4090.044,623.688l-4.256,4.256,4.256,4.256" fill="none" stroke="#333" stroke-linecap="round" stroke-linejoin="round" stroke-width="4"/>
  </g>
</svg>
