<svg xmlns="http://www.w3.org/2000/svg" width="232" height="232" viewBox="0 0 232 232">
  <g id="Group_46" data-name="Group 46" transform="translate(-3348 -544.106)">
    <circle id="Ellipse_9" data-name="Ellipse 9" cx="114" cy="114" r="114" transform="translate(3350 546.106)" stroke-width="4" stroke="#333" stroke-linecap="round" stroke-linejoin="round" fill="none"/>
    <path id="Path_170" data-name="Path 170" d="M3485.8,717.106" fill="none" stroke="#333" stroke-linecap="round" stroke-linejoin="round" stroke-width="4"/>
    <line id="Line_90" data-name="Line 90" x2="42.75" transform="translate(3411.699 719.956)" fill="none" stroke="#333" stroke-linecap="round" stroke-linejoin="round" stroke-width="4"/>
    <line id="Line_91" data-name="Line 91" x2="51.3" transform="translate(3463 719.956)" fill="none" stroke="#333" stroke-linecap="round" stroke-linejoin="round" stroke-width="4"/>
    <line id="Line_92" data-name="Line 92" x2="57" transform="translate(3443.05 737.056)" fill="none" stroke="#333" stroke-linecap="round" stroke-linejoin="round" stroke-width="4"/>
    <line id="Line_93" data-name="Line 93" x2="8.55" transform="translate(3394.599 719.956)" fill="none" stroke="#333" stroke-linecap="round" stroke-linejoin="round" stroke-width="4"/>
    <line id="Line_94" data-name="Line 94" x2="11.4" transform="translate(3522.849 719.956)" fill="none" stroke="#333" stroke-linecap="round" stroke-linejoin="round" stroke-width="4"/>
    <line id="Line_95" data-name="Line 95" x2="22.8" transform="translate(3408.849 737.056)" fill="none" stroke="#333" stroke-linecap="round" stroke-linejoin="round" stroke-width="4"/>
    <line id="Line_96" data-name="Line 96" x2="8.55" transform="translate(3511.449 737.056)" fill="none" stroke="#333" stroke-linecap="round" stroke-linejoin="round" stroke-width="4"/>
    <line id="Line_97" data-name="Line 97" x2="17.1" transform="translate(3440.199 751.306)" fill="none" stroke="#333" stroke-linecap="round" stroke-miterlimit="10" stroke-width="4"/>
    <line id="Line_98" data-name="Line 98" x2="8.55" transform="translate(3465.849 751.306)" fill="none" stroke="#333" stroke-linecap="round" stroke-miterlimit="10" stroke-width="4"/>
    <line id="Line_99" data-name="Line 99" x2="5.7" transform="translate(3482.949 751.306)" fill="none" stroke="#333" stroke-linecap="round" stroke-miterlimit="10" stroke-width="4"/>
    <line id="Line_100" data-name="Line 100" x2="185.25" transform="translate(3371.8 702.856)" fill="none" stroke="#333" stroke-linecap="round" stroke-linejoin="round" stroke-width="4"/>
    <path id="Path_171" data-name="Path 171" d="M3464,665.806s7.877-2.85,14.25-2.85c5.7,0,7.576-4.124,11.4-2.85,8.55,2.85,9.385,15.085,11.4,17.1,2.85,2.85,8.851,6.3,11.4,11.4,2.85,5.7,8.55,11.4,5.7,14.25" fill="none" stroke="#333" stroke-linecap="round" stroke-linejoin="round" stroke-width="4"/>
    <path id="Path_172" data-name="Path 172" d="M3404.3,586.156c5.7,8.55,11.25,2.7,11.25,16.95s5.7,17.1,8.55,25.65c2.7,8.112,12,14.551,17.1,17.1,5.7,2.85,0,17.1,5.7,22.8l17.1,17.1c4.506,4.507,2.85,17.1,2.85,17.1" fill="none" stroke="#333" stroke-linecap="round" stroke-linejoin="round" stroke-width="4"/>
    <path id="Path_173" data-name="Path 173" d="M3401.3,651.556c2.85,8.55,8.55,11.4,5.7,17.1s-8.249,6.3-5.7,11.4c2.85,5.7,14.25,2.85,17.1,8.55" transform="translate(5)" fill="none" stroke="#333" stroke-linecap="round" stroke-linejoin="round" stroke-width="4"/>
    <path id="Path_174" data-name="Path 174" d="M3389.9,637.306c5.7-8.55,14.25-5.7,14.25-14.25" fill="none" stroke="#333" stroke-linecap="round" stroke-linejoin="round" stroke-width="4"/>
    <path id="Path_175" data-name="Path 175" d="M3369.95,645.856c5.7,14.25,5.7,14.25,11.4,17.1" fill="none" stroke="#333" stroke-linecap="round" stroke-linejoin="round" stroke-width="4"/>
    <path id="Path_176" data-name="Path 176" d="M3558.05,688.606l-5.7-5.7c-5.7-5.7-2.85-8.55-5.7-14.25s-11.4-2.85-17.1-8.55,3.6-12.263-2.85-17.1c-11.4-8.55-11.4,0-17.1,0s-8.55-11.4-14.25-11.4c-9.012,0-14.25-2.85-19.95-2.85s-11.4,8.55-22.8,11.4l-14.25,2.85" fill="none" stroke="#333" stroke-linecap="round" stroke-linejoin="round" stroke-width="4"/>
    <path id="Path_177" data-name="Path 177" d="M3435.5,611.656l11.4-11.4c4.506-4.506,8.55-2.85,14.25-2.85s14.25,0,17.1-2.85,5.027-11.4,11.4-11.4c5.7,0,8.55,5.7,14.25,5.7s11.4-11.4,11.4-11.4" fill="none" stroke="#333" stroke-linecap="round" stroke-linejoin="round" stroke-width="4"/>
    <path id="Path_178" data-name="Path 178" d="M3486.8,614.506c5.7-2.85,8.55-5.7,17.1,0s11.4-5.7,19.95-8.55,14.25,2.85,19.95,2.85" fill="none" stroke="#333" stroke-linecap="round" stroke-linejoin="round" stroke-width="4"/>
  </g>
</svg>
