<svg xmlns="http://www.w3.org/2000/svg" width="174.276" height="51.895" viewBox="0 0 174.276 51.895">
  <g id="Group_61" data-name="Group 61" transform="translate(-276.518 -463.083)">
    <g id="Group_61-2" data-name="Group 61" transform="translate(276.518 463.083)">
      <path id="Path_292" data-name="Path 292" d="M276.843,504.4h6.548v.222l-.393.034a5.723,5.723,0,0,0-4.069,1.71,11.968,11.968,0,0,0-2.257,5.077l-.154-.068Zm12.5,23.586a10.509,10.509,0,0,0,.445,3.642,2.081,2.081,0,0,0,1.436,1.317v.137h-7.386v-.137a2.057,2.057,0,0,0,1.4-1.317,10.294,10.294,0,0,0,.462-3.676V504.4h3.676v23.552Zm9.181-16.576-.154.068a11.748,11.748,0,0,0-2.274-5.078,5.777,5.777,0,0,0-4.052-1.709l-.393-.034v-.222H298.2Z" transform="translate(-276.518 -490.734)" fill="#333"/>
      <path id="Path_293" data-name="Path 293" d="M346.543,548.907a6.721,6.721,0,0,0,.461,2.958,2.412,2.412,0,0,0,1.675,1.129v.1H341.4v-.1a2.143,2.143,0,0,0,1.436-1.129,7.941,7.941,0,0,0,.376-2.992v-8.617a9.283,9.283,0,0,0-.411-3.282,2.327,2.327,0,0,0-1.334-1.334l.034-.1a14.483,14.483,0,0,0,5.3-1.231l.068.069a42.489,42.489,0,0,0-.324,5.881v8.651Zm5.8-14.583a3.207,3.207,0,0,1,1.847.53l-.7,2.838h-.1a3.29,3.29,0,0,0-2.171-.632,2.977,2.977,0,0,0-2.668,1.5l-.034-.068a5.228,5.228,0,0,1,1.282-3.026,3.37,3.37,0,0,1,2.564-1.129Z" transform="translate(-319.94 -510.752)" fill="#333"/>
      <path id="Path_294" data-name="Path 294" d="M390.731,536.473a3.575,3.575,0,0,0,2.24-.7l.068.034a3.564,3.564,0,0,1-1.419,1.9,4.459,4.459,0,0,1-2.65.769,4.828,4.828,0,0,1-3.488-1.333,4.613,4.613,0,0,1-1.385-3.471,3.724,3.724,0,0,1,.838-2.718l7.916-2.411v.239l-4.941,1.71a4.343,4.343,0,0,0-.5,2.1,3.893,3.893,0,0,0,.974,2.872,3.224,3.224,0,0,0,2.376.975Zm-4.343-9.933-1.231-4.975a8.9,8.9,0,0,1,4.941-2.052v.188a4.73,4.73,0,0,0-2.445,2.308,10.317,10.317,0,0,0-1.111,4.514Zm8.206-9.574a6.993,6.993,0,0,1-3.676-1.009,5.457,5.457,0,0,1-2.24-2.616l2.172-1.265h.1c.718,2.513,1.949,4.1,3.676,4.77l-.034.1Zm3.488,15.9a7.992,7.992,0,0,0,.411,3.077,2.342,2.342,0,0,0,1.351,1.231v.1a16.026,16.026,0,0,0-5.044,1.179l-.069-.068V526.831c0-4.1-.871-6.463-2.632-7.1v-.189a6.341,6.341,0,0,1,4.445,2.24,8.142,8.142,0,0,1,1.573,5.283v5.779Z" transform="translate(-348.519 -495.873)" fill="#333"/>
      <path id="Path_295" data-name="Path 295" d="M448.935,548.907a7.471,7.471,0,0,0,.411,2.958,2.128,2.128,0,0,0,1.436,1.129v.1h-6.975v-.1a2.144,2.144,0,0,0,1.436-1.129,7.946,7.946,0,0,0,.376-2.992v-8.617a9.275,9.275,0,0,0-.41-3.282,2.328,2.328,0,0,0-1.334-1.334l.035-.1a13.978,13.978,0,0,0,5.282-1.231l.068.069a42.551,42.551,0,0,0-.325,5.881v8.651Zm12.275.034a8.287,8.287,0,0,0,.359,2.992,2.139,2.139,0,0,0,1.385,1.128v.1h-6.976v-.1a2.106,2.106,0,0,0,1.419-1.146,7.627,7.627,0,0,0,.411-2.975V541.35a5.79,5.79,0,0,0-1.043-3.778,3.728,3.728,0,0,0-3.026-1.265,3.643,3.643,0,0,0-2.77,1.077l-.068-.034a4.6,4.6,0,0,1,1.744-2.1,5.12,5.12,0,0,1,3.009-.889,5.283,5.283,0,0,1,4.086,1.607,6.186,6.186,0,0,1,1.487,4.359v8.583Z" transform="translate(-388.481 -510.752)" fill="#333"/>
      <path id="Path_296" data-name="Path 296" d="M512.252,548.631a1.937,1.937,0,0,1,.855-1.59,3.776,3.776,0,0,1,2.1-.718l.034.1a3.242,3.242,0,0,0-.512,1.932,3.548,3.548,0,0,0,1.334,2.872,6.984,6.984,0,0,0,3.967,1.3v.188a11.782,11.782,0,0,1-5.848-1.334,3.382,3.382,0,0,1-1.881-2.753Zm.992-16.191a6.488,6.488,0,0,1,1.846-4.7A7.776,7.776,0,0,1,520,525.516v.188q-3.257.9-3.146,6.719.026,5.515,3.129,6.412v.171a7.8,7.8,0,0,1-4.873-2.1,6.026,6.026,0,0,1-1.863-4.5Zm.051,8.976a10.585,10.585,0,0,0,2.719-1.744l.12.068a2.435,2.435,0,0,0-.564,1.4c0,.7.547,1.043,1.641,1.043h7.181a6.672,6.672,0,0,1,4.479,1.316,4.305,4.305,0,0,1,1.5,3.419,4.94,4.94,0,0,1-2.12,4,10.3,10.3,0,0,1-6.052,1.812v-.188a8.457,8.457,0,0,0,4.514-1.367,3.455,3.455,0,0,0,1.607-2.856c0-2.171-1.589-3.265-4.786-3.282h-6.377c-2.582,0-3.881-1.214-3.881-3.642Zm8.873-2.564c2-.6,3.043-2.77,3.111-6.514q.026-5.719-3.128-6.616v-.189a7.576,7.576,0,0,1,4.856,2.155,6.367,6.367,0,0,1,1.846,4.65,6.148,6.148,0,0,1-1.846,4.565,7.767,7.767,0,0,1-4.838,2.12Zm4.582-16.96,2.7-.872a3.076,3.076,0,0,1,.7,1.966,2.307,2.307,0,0,1-.889,1.864,4.535,4.535,0,0,1-2.411.923l-.1-.1a2.688,2.688,0,0,0,.564-1.8,3.087,3.087,0,0,0-.6-1.881Z" transform="translate(-434.291 -501.859)" fill="#333"/>
      <path id="Path_297" data-name="Path 297" d="M577.693,528.164q-.846,2.513-.308,3.642a2.976,2.976,0,0,0,2.359,1.453v.137h-6.582v-.137a3.714,3.714,0,0,0,1.949-1.385,14.616,14.616,0,0,0,1.829-3.4l7.431-17.94.069.291-6.731,17.307Zm19.046-.5a24.155,24.155,0,0,0,1.949,4.257,2.968,2.968,0,0,0,1.658,1.3v.137h-8.292v-.137a1.96,1.96,0,0,0,1.539-1.367,6.873,6.873,0,0,0-.513-3.454l-1.436-3.812-10.158-.333.085-.222,9.9-.009-6.041-16.676,1.06-2.531h1.744l8.486,22.813Z" transform="translate(-475.057 -491.017)" fill="#333"/>
      <path id="Path_298" data-name="Path 298" d="M668.19,548.907a7.476,7.476,0,0,0,.41,2.958,2.128,2.128,0,0,0,1.436,1.129v.1h-6.975v-.1a2.142,2.142,0,0,0,1.436-1.129,7.938,7.938,0,0,0,.376-2.992v-8.617a9.286,9.286,0,0,0-.41-3.282,2.327,2.327,0,0,0-1.334-1.334l.034-.1a13.982,13.982,0,0,0,5.283-1.231l.068.069a42.557,42.557,0,0,0-.325,5.881v8.651Zm12.276.034a8.3,8.3,0,0,0,.358,2.992,2.141,2.141,0,0,0,1.385,1.128v.1h-6.976v-.1a2.1,2.1,0,0,0,1.419-1.146,7.623,7.623,0,0,0,.411-2.975V541.35a5.79,5.79,0,0,0-1.043-3.778,3.729,3.729,0,0,0-3.026-1.265,3.643,3.643,0,0,0-2.77,1.077l-.068-.034a4.594,4.594,0,0,1,1.744-2.1,5.12,5.12,0,0,1,3.009-.889A5.283,5.283,0,0,1,679,535.965a6.186,6.186,0,0,1,1.487,4.359v8.583Z" transform="translate(-535.225 -510.752)" fill="#333"/>
      <path id="Path_299" data-name="Path 299" d="M638.913,547.208" transform="translate(-519.063 -519.386)" fill="#333" stroke="#262626" stroke-linecap="round" stroke-linejoin="round" stroke-width="7"/>
      <path id="Path_300" data-name="Path 300" d="M727.593,479.151a13.647,13.647,0,0,1-2.279-.969c-.059-.844-.089-1.7-.089-2.553q0-1.235.083-2.451a19.636,19.636,0,0,1-5.136-.744q.963.084,1.945.086a22.6,22.6,0,0,0,3.264-.238q.838-.124,1.65-.307v.013c0,.38,0,.764.013,1.141A46.233,46.233,0,0,0,727.593,479.151Z" transform="translate(-573.449 -469.034)" fill="#333"/>
      <path id="Path_301" data-name="Path 301" d="M710.435,465.157a2.661,2.661,0,0,0-4.233,0,2.117,2.117,0,0,1,4.233,0Z" transform="translate(-564.099 -463.083)" fill="#333"/>
      <path id="Path_302" data-name="Path 302" d="M757.714,499.49a17.962,17.962,0,0,1-11.667,7.987,13.065,13.065,0,0,1-.724-2.17,17.275,17.275,0,0,0,7.345-2.884,14.086,14.086,0,0,1-7.2-3.459,13.473,13.473,0,0,0,9.65,1.409A13.127,13.127,0,0,0,757.714,499.49Z" transform="translate(-590.281 -487.097)" fill="#333"/>
      <path id="Path_303" data-name="Path 303" d="M761.077,536.15a19.577,19.577,0,0,1-3.228,3.681,19.359,19.359,0,0,1-12.6,4.9V547.3a7.441,7.441,0,0,0,.41,2.957,2.124,2.124,0,0,0,1.435,1.131v.1h-6.975v-.1a2.134,2.134,0,0,0,1.435-1.131,7.887,7.887,0,0,0,.377-2.99v-5.285a18.663,18.663,0,0,0,2.93.228c.129,0,.258,0,.387-.007a18.721,18.721,0,0,0,8.956-2.467,13.763,13.763,0,0,1-10.315-7.831,13.43,13.43,0,0,0,17.184,4.247Z" transform="translate(-586.801 -509.144)" fill="#333"/>
      <path id="Path_304" data-name="Path 304" d="M682.6,479.151a13.66,13.66,0,0,0,2.279-.969c.059-.844.089-1.7.089-2.553q0-1.235-.083-2.451a19.641,19.641,0,0,0,5.136-.744q-.963.084-1.945.086a22.593,22.593,0,0,1-3.264-.238c-.559-.083-1.108-.185-1.651-.307v.013c0,.38,0,.764-.013,1.141A46.3,46.3,0,0,1,682.6,479.151Z" transform="translate(-548.3 -469.034)" fill="#333"/>
      <path id="Path_305" data-name="Path 305" d="M642.416,499.49a17.762,17.762,0,0,0,2.5,3.112c.089,0,.182,0,.271,0a14.072,14.072,0,0,0,9.471-3.641,13.464,13.464,0,0,1-12.246.526Z" transform="translate(-521.408 -487.097)" fill="#333"/>
      <path id="Path_306" data-name="Path 306" d="M758.008,499.49a17.765,17.765,0,0,1-2.5,3.112c-.089,0-.182,0-.271,0a14.074,14.074,0,0,1-9.472-3.641,13.465,13.465,0,0,0,12.246.526Z" transform="translate(-590.575 -487.097)" fill="#333"/>
    </g>
    <path id="Path_307" data-name="Path 307" d="M357,613l.991,2.314h46.237Z" transform="translate(-53.868 -100.338)" fill="#333"/>
    <path id="Path_308" data-name="Path 308" d="M620.317,613l-.991,2.314H573.089Z" transform="translate(-198.49 -100.338)" fill="#333"/>
  </g>
</svg>
